<?xml version="1.0" encoding="UTF-8" standalone="no"?>
<!DOCTYPE svg PUBLIC "-//W3C//DTD SVG 1.1//EN" "http://www.w3.org/Graphics/SVG/1.1/DTD/svg11.dtd">
<!-- Created with Vectornator (http://vectornator.io/) -->
<svg height="100%" stroke-miterlimit="10" style="fill-rule:nonzero;clip-rule:evenodd;stroke-linecap:round;stroke-linejoin:round;" version="1.1" viewBox="60 840 21 150" width="100%" xml:space="preserve" xmlns="http://www.w3.org/2000/svg" xmlns:vectornator="http://vectornator.io" xmlns:xlink="http://www.w3.org/1999/xlink">
<defs/>
<g id="Layer">
<g opacity="1">
<path d="M60 840L81 840L81 840L81 842L81 842L60 842L60 842L60 840L60 840Z" fill="#9bfaff" fill-rule="nonzero" opacity="1" stroke="none"/>
<path d="M60 844L81 844L81 844L81 846L81 846L60 846L60 846L60 844L60 844Z" fill="#9bfaff" fill-rule="nonzero" opacity="1" stroke="none"/>
<path d="M60 848L81 848L81 848L81 850L81 850L60 850L60 850L60 848L60 848Z" fill="#9bfaff" fill-rule="nonzero" opacity="1" stroke="none"/>
<path d="M60 852L81 852L81 852L81 854L81 854L60 854L60 854L60 852L60 852Z" fill="#9bfaff" fill-rule="nonzero" opacity="1" stroke="none"/>
<path d="M60 856L81 856L81 856L81 858L81 858L60 858L60 858L60 856L60 856Z" fill="#9bfaff" fill-rule="nonzero" opacity="1" stroke="none"/>
<path d="M60 860L81 860L81 860L81 862L81 862L60 862L60 862L60 860L60 860Z" fill="#9bfaff" fill-rule="nonzero" opacity="1" stroke="none"/>
<path d="M60 864L81 864L81 864L81 866L81 866L60 866L60 866L60 864L60 864Z" fill="#9bfaff" fill-rule="nonzero" opacity="1" stroke="none"/>
<path d="M60 868L81 868L81 868L81 870L81 870L60 870L60 870L60 868L60 868Z" fill="#9bfaff" fill-rule="nonzero" opacity="1" stroke="none"/>
<path d="M60 872L81 872L81 872L81 874L81 874L60 874L60 874L60 872L60 872Z" fill="#9bfaff" fill-rule="nonzero" opacity="1" stroke="none"/>
<path d="M60 876L81 876L81 876L81 878L81 878L60 878L60 878L60 876L60 876Z" fill="#9bfaff" fill-rule="nonzero" opacity="1" stroke="none"/>
<path d="M60 880L81 880L81 880L81 882L81 882L60 882L60 882L60 880L60 880Z" fill="#9bfaff" fill-rule="nonzero" opacity="1" stroke="none"/>
<path d="M60 884L81 884L81 884L81 886L81 886L60 886L60 886L60 884L60 884Z" fill="#9bfaff" fill-rule="nonzero" opacity="1" stroke="none"/>
<path d="M60 888L81 888L81 888L81 890L81 890L60 890L60 890L60 888L60 888Z" fill="#9bfaff" fill-rule="nonzero" opacity="1" stroke="none"/>
<path d="M60 916L81 916L81 916L81 918L81 918L60 918L60 918L60 916L60 916Z" fill="#9bfaff" fill-rule="nonzero" opacity="1" stroke="none"/>
<path d="M60 912L81 912L81 912L81 914L81 914L60 914L60 914L60 912L60 912Z" fill="#9bfaff" fill-rule="nonzero" opacity="1" stroke="none"/>
<path d="M60 908L81 908L81 908L81 910L81 910L60 910L60 910L60 908L60 908Z" fill="#9bfaff" fill-rule="nonzero" opacity="1" stroke="none"/>
<path d="M60 904L81 904L81 904L81 906L81 906L60 906L60 906L60 904L60 904Z" fill="#9bfaff" fill-rule="nonzero" opacity="1" stroke="none"/>
<path d="M60 900L81 900L81 900L81 902L81 902L60 902L60 902L60 900L60 900Z" fill="#9bfaff" fill-rule="nonzero" opacity="1" stroke="none"/>
<path d="M60 896L81 896L81 896L81 898L81 898L60 898L60 898L60 896L60 896Z" fill="#9bfaff" fill-rule="nonzero" opacity="1" stroke="none"/>
<path d="M60 892L81 892L81 892L81 894L81 894L60 894L60 894L60 892L60 892Z" fill="#9bfaff" fill-rule="nonzero" opacity="1" stroke="none"/>
<path d="M60 920L81 920L81 920L81 922L81 922L60 922L60 922L60 920L60 920Z" fill="#9bfaff" fill-rule="nonzero" opacity="1" stroke="none"/>
<path d="M60 924L81 924L81 924L81 926L81 926L60 926L60 926L60 924L60 924Z" fill="#9bfaff" fill-rule="nonzero" opacity="1" stroke="none"/>
<path d="M60 928L81 928L81 928L81 930L81 930L60 930L60 930L60 928L60 928Z" fill="#9bfaff" fill-rule="nonzero" opacity="1" stroke="none"/>
<path d="M60 932L81 932L81 932L81 934L81 934L60 934L60 934L60 932L60 932Z" fill="#9bfaff" fill-rule="nonzero" opacity="1" stroke="none"/>
<path d="M60 936L81 936L81 936L81 938L81 938L60 938L60 938L60 936L60 936Z" fill="#9bfaff" fill-rule="nonzero" opacity="1" stroke="none"/>
<path d="M60 940L81 940L81 940L81 942L81 942L60 942L60 942L60 940L60 940Z" fill="#9bfaff" fill-rule="nonzero" opacity="1" stroke="none"/>
<path d="M60 988L81 988L81 988L81 990L81 990L60 990L60 990L60 988L60 988Z" fill="#9bfaff" fill-rule="nonzero" opacity="1" stroke="none"/>
<path d="M60 984L81 984L81 984L81 986L81 986L60 986L60 986L60 984L60 984Z" fill="#9bfaff" fill-rule="nonzero" opacity="1" stroke="none"/>
<path d="M60 980L81 980L81 980L81 982L81 982L60 982L60 982L60 980L60 980Z" fill="#9bfaff" fill-rule="nonzero" opacity="1" stroke="none"/>
<path d="M60 976L81 976L81 976L81 978L81 978L60 978L60 978L60 976L60 976Z" fill="#9bfaff" fill-rule="nonzero" opacity="1" stroke="none"/>
<path d="M60 972L81 972L81 972L81 974L81 974L60 974L60 974L60 972L60 972Z" fill="#9bfaff" fill-rule="nonzero" opacity="1" stroke="none"/>
<path d="M60 968L81 968L81 968L81 970L81 970L60 970L60 970L60 968L60 968Z" fill="#9bfaff" fill-rule="nonzero" opacity="1" stroke="none"/>
<path d="M60 944L81 944L81 944L81 946L81 946L60 946L60 946L60 944L60 944Z" fill="#9bfaff" fill-rule="nonzero" opacity="1" stroke="none"/>
<path d="M60 948L81 948L81 948L81 950L81 950L60 950L60 950L60 948L60 948Z" fill="#9bfaff" fill-rule="nonzero" opacity="1" stroke="none"/>
<path d="M60 952L81 952L81 952L81 954L81 954L60 954L60 954L60 952L60 952Z" fill="#9bfaff" fill-rule="nonzero" opacity="1" stroke="none"/>
<path d="M60 956L81 956L81 956L81 958L81 958L60 958L60 958L60 956L60 956Z" fill="#9bfaff" fill-rule="nonzero" opacity="1" stroke="none"/>
<path d="M60 960L81 960L81 960L81 962L81 962L60 962L60 962L60 960L60 960Z" fill="#9bfaff" fill-rule="nonzero" opacity="1" stroke="none"/>
<path d="M60 964L81 964L81 964L81 966L81 966L60 966L60 966L60 964L60 964Z" fill="#9bfaff" fill-rule="nonzero" opacity="1" stroke="none"/>
</g>
</g>
</svg>
